<?xml version="1.0" encoding="UTF-8" standalone="no"?>
<!-- Created with Inkscape (http://www.inkscape.org/) -->

<svg
   xmlns:dc="http://purl.org/dc/elements/1.1/"
   xmlns:cc="http://creativecommons.org/ns#"
   xmlns:rdf="http://www.w3.org/1999/02/22-rdf-syntax-ns#"
   xmlns:svg="http://www.w3.org/2000/svg"
   xmlns="http://www.w3.org/2000/svg"
   xmlns:sodipodi="http://sodipodi.sourceforge.net/DTD/sodipodi-0.dtd"
   xmlns:inkscape="http://www.inkscape.org/namespaces/inkscape"
   width="64"
   height="64"
   id="svg10048"
   version="1.1"
   inkscape:version="0.48.4 r9939"
   sodipodi:docname="ink.svg">
  <defs
     id="defs10050" />
  <sodipodi:namedview
     id="base"
     pagecolor="#ffffff"
     bordercolor="#666666"
     borderopacity="1.0"
     inkscape:pageopacity="0.0"
     inkscape:pageshadow="2"
     inkscape:zoom="1.979899"
     inkscape:cx="83.943013"
     inkscape:cy="46.500392"
     inkscape:document-units="px"
     inkscape:current-layer="layer1"
     showgrid="false"
     fit-margin-top="0"
     fit-margin-left="0"
     fit-margin-right="0"
     fit-margin-bottom="0"
     inkscape:window-width="1276"
     inkscape:window-height="761"
     inkscape:window-x="0"
     inkscape:window-y="37"
     inkscape:window-maximized="0" />
  <metadata
     id="metadata10053">
    <rdf:RDF>
      <cc:Work
         rdf:about="">
        <dc:format>image/svg+xml</dc:format>
        <dc:type
           rdf:resource="http://purl.org/dc/dcmitype/StillImage" />
        <dc:title></dc:title>
      </cc:Work>
    </rdf:RDF>
  </metadata>
  <g
     inkscape:label="Layer 1"
     inkscape:groupmode="layer"
     id="layer1"
     transform="translate(-5.3092912,-330.2907)">
    <path
       style="display:inline"
       inkscape:connector-curvature="0"
       d="m 5.3092912,362.2907 q 0,-13.25 9.3749998,-22.625 9.375,-9.375 22.625,-9.375 13.25,0 22.625,9.375 9.375,9.375 9.375,22.625 0,13.25 -9.375,22.625 -9.375,9.375 -22.625,9.375 -13.25,0 -22.625,-9.375 -9.3749998,-9.375 -9.3749998,-22.625 z m 3.5,0 q 0,11.75 8.3749998,20.125 8.375,8.375 20.125,8.375 11.75,0 20.125,-8.375 8.375,-8.375 8.375,-20.125 0,-11.75 -8.375,-20.125 -8.375,-8.375 -20.125,-8.375 -11.75,0 -20.125,8.375 -8.3749998,8.375 -8.3749998,20.125 z m 8.9999998,6.875 q -0.25,-0.25 0,-0.5 0.5,-0.5 1.25,-0.375 0.75,0.125 0.875,0.25 0.875,0.375 1.93747,1.6875 1.06247,1.3126 1.68753,1.8126 3,2.5 6.125,0.375 0.25,-0.875 0.81247,-1.5 0.56247,-0.625 1.06253,-0.875 0.50006,-0.25 1.75,-0.75 -4.125,-0.375 -6.68753,-1.4376 -2.56253,-1.0625 -4.06253,-2.6874 -2,-2.25 -2.43754,-5.875 -0.43753,-3.625 0.56254,-6.625 0.75,-1.875 2.125,-3.375 -1,-3.125 0.375,-7.125 4,0.25 7.25,2.75 6.25,-1.625 13,-0.125 0.875,-0.625 2.68746,-1.5626 1.81247,-0.9375 4.56254,-1.0625 0.5,1.375 0.68753,3.25 0.18753,1.875 -0.18747,3.5 2.875,3 3,8 0,4 -1.375,6.625 -1.375,2.625 -4.875,4.375 -2.375,1.125 -6.25,1.375 1.75,0.875 2.56253,1.8125 0.81253,0.9376 1.06253,2.9375 l 0,3.9375 q 0,0 0.125,3.8126 0.375,0.625 0.875,1.0625 0.5,0.4375 0.875,0.625 0.375,0.1875 0.25,0.5625 -0.125,0.3751 -1,0.375 -2.125,0 -3.375,-1.5 -0.375,-0.625 -0.375,-1.5 l 0,-6 q 0,-1 -0.5,-1.4375 -0.5,-0.4375 -1,-0.5625 l 0,7.875 q 0,2.125 0.5,2.75 0.5,0.625 0.625,1.25 0.125,0.125 -0.18746,0.1874 -0.31247,0.063 -1.06254,-0.1874 -1.625,-0.375 -2.25,-1.6876 -0.625,-1.3125 -0.625,-2.8125 l 0,-7.75 -1.625,0 0,7.75 q 0,1.5 -0.625,2.875 -0.875,1.75 -3.25,1.875 -0.375,-0.125 -0.375,-0.25 0.125,-0.125 0.75,-1.25 0.125,-0.25 0.31254,-1 0.18753,-0.75 0.18746,-1.75 l 0,-7.875 q -0.5,0.125 -0.93753,0.5625 -0.43753,0.4376 -0.43753,1.4376 l 0,6 q 0,0.875 -0.375,1.5 -1.125,1.5 -3.375,1.5 -0.875,0 -1,-0.375 -0.125,-0.25 0.0625,-0.4376 0.18753,-0.1875 0.56253,-0.4375 0.375,-0.25 0.5,-0.375 0.5,-0.375 0.75,-1 0.375,-0.5 0.18747,-2.625 -0.18753,-2.125 -0.0625,-2.75 -3.25,1.125 -6.625,-1.125 -1,-1 -2,-2.875 -0.75,-1.375 -3,-3.25 z"
       id="path7157" />
  </g>
</svg>
