<?xml version="1.0" encoding="UTF-8" standalone="no"?>
<!-- Created with Inkscape (http://www.inkscape.org/) -->

<svg
   xmlns:dc="http://purl.org/dc/elements/1.1/"
   xmlns:cc="http://creativecommons.org/ns#"
   xmlns:rdf="http://www.w3.org/1999/02/22-rdf-syntax-ns#"
   xmlns:svg="http://www.w3.org/2000/svg"
   xmlns="http://www.w3.org/2000/svg"
   xmlns:sodipodi="http://sodipodi.sourceforge.net/DTD/sodipodi-0.dtd"
   xmlns:inkscape="http://www.inkscape.org/namespaces/inkscape"
   width="247.9496"
   height="204.3876"
   id="svg9839"
   version="1.1"
   inkscape:version="0.48.4 r9939"
   sodipodi:docname="hob.svg">
  <defs
     id="defs9841" />
  <sodipodi:namedview
     id="base"
     pagecolor="#ffffff"
     bordercolor="#666666"
     borderopacity="1.0"
     inkscape:pageopacity="0.0"
     inkscape:pageshadow="2"
     inkscape:zoom="1.979899"
     inkscape:cx="166.65855"
     inkscape:cy="74.850756"
     inkscape:document-units="px"
     inkscape:current-layer="layer1"
     showgrid="false"
     fit-margin-top="0"
     fit-margin-left="0"
     fit-margin-right="0"
     fit-margin-bottom="0"
     inkscape:window-width="1276"
     inkscape:window-height="761"
     inkscape:window-x="0"
     inkscape:window-y="37"
     inkscape:window-maximized="0" />
  <metadata
     id="metadata9844">
    <rdf:RDF>
      <cc:Work
         rdf:about="">
        <dc:format>image/svg+xml</dc:format>
        <dc:type
           rdf:resource="http://purl.org/dc/dcmitype/StillImage" />
        <dc:title />
      </cc:Work>
    </rdf:RDF>
  </metadata>
  <g
     inkscape:label="Layer 1"
     inkscape:groupmode="layer"
     id="layer1"
     transform="translate(-502.93552,-344.59256)">
    <text
       xml:space="preserve"
       style="font-size:14px;font-style:normal;font-variant:normal;font-weight:normal;font-stretch:normal;text-align:center;line-height:100%;letter-spacing:0px;word-spacing:0px;writing-mode:lr-tb;text-anchor:middle;fill:#18263a;fill-opacity:1;stroke:none;display:inline;font-family:TeX Gyre Heros;-inkscape-font-specification:TeX Gyre Heros"
       x="551.64044"
       y="424.26788"
       id="text4075-1-7-6"
       sodipodi:linespacing="100%"><tspan
         sodipodi:role="line"
         id="tspan5937"
         x="551.64044"
         y="424.26788">Cycling</tspan></text>
    <text
       xml:space="preserve"
       style="font-size:14px;font-style:normal;font-variant:normal;font-weight:normal;font-stretch:normal;text-align:center;line-height:100%;letter-spacing:0px;word-spacing:0px;writing-mode:lr-tb;text-anchor:middle;fill:#18263a;fill-opacity:1;stroke:none;display:inline;font-family:TeX Gyre Heros;-inkscape-font-specification:TeX Gyre Heros"
       x="698.78699"
       y="425.13135"
       id="text4075-1-7-6-3"
       sodipodi:linespacing="100%"><tspan
         sodipodi:role="line"
         id="tspan10174"
         x="698.78699"
         y="425.13135">Musician</tspan></text>
    <path
       inkscape:connector-curvature="0"
       d="m 522.9252,369.89396 c -9.84643,0 -17.8577,8.01159 -17.8577,17.85802 0,9.84642 8.01127,17.85477 17.8577,17.85477 9.84675,0 17.85802,-8.00835 17.85802,-17.85477 0,-9.84643 -8.01127,-17.85802 -17.85802,-17.85802 l 0,0 z m 0,-2.13361 c 11.04053,0 19.99,8.95011 19.99,19.99163 0,11.03826 -8.94947,19.98838 -19.99,19.98838 -11.04022,0 -19.98968,-8.95012 -19.98968,-19.98838 0,-11.04152 8.94946,-19.99163 19.98968,-19.99163"
       style="fill:#18263a;fill-opacity:1;fill-rule:nonzero;stroke:none"
       id="path14" />
    <path
       inkscape:connector-curvature="0"
       d="m 582.26877,369.89396 c -9.84675,0 -17.85705,8.01159 -17.85705,17.85802 0,9.84642 8.0103,17.85477 17.85705,17.85477 9.8474,0 17.85802,-8.00835 17.85802,-17.85477 0,-9.84643 -8.01062,-17.85802 -17.85802,-17.85802 l 0,0 z m 0,-2.13361 c 11.04053,0 19.99032,8.95011 19.99032,19.99163 0,11.03826 -8.94979,19.98838 -19.99032,19.98838 -11.03989,0 -19.98936,-8.95012 -19.98936,-19.98838 0,-11.04152 8.94947,-19.99163 19.98936,-19.99163"
       style="fill:#18263a;fill-opacity:1;fill-rule:nonzero;stroke:none"
       id="path16" />
    <path
       inkscape:connector-curvature="0"
       d="m 547.23763,389.40496 -7.86058,-27.87657 31.21272,-1.14312 0.93009,2.91301 -24.28223,26.10668 z m -21.85927,-1.27303 c 0.0143,-0.10392 0.0234,-0.21108 0.0234,-0.31825 0,-0.93853 -0.51992,-1.75041 -1.28666,-2.17258 l 13.57196,-23.10598 7.99666,27.46413 -20.30534,-1.86732 z m 56.71472,-2.7961 c -0.21531,0 -0.42315,0.0292 -0.6219,0.0812 -0.87747,-1.76339 -2.36613,-4.79007 -2.84286,-5.9819 -0.63814,-1.59452 -4.08829,-12.21386 -4.62542,-13.87008 l 0.15945,-0.0552 c 0.19063,-0.065 0.29195,-0.27279 0.22635,-0.4644 -0.0656,-0.1916 -0.27441,-0.29227 -0.46472,-0.22732 l -0.0516,0.0195 -2.16544,-6.97889 c 0.16173,-0.0779 0.24324,-0.26629 0.18284,-0.44166 -0.0656,-0.1916 -0.27312,-0.29552 -0.46472,-0.22732 l -0.0198,0.007 -0.57221,-1.28602 1.52113,0.32151 c 0.01,0 0.0205,0 0.0341,0.003 0.39197,0.0455 2.30021,0.31825 4.02074,1.05219 0.86026,0.36696 1.66532,0.84759 2.21512,1.41915 0.54947,0.57806 0.85604,1.19509 0.86221,2.01346 0,0.0714 -0.003,0.15263 -0.009,0.23382 -0.0718,0.94502 -0.3254,1.64973 -0.70146,2.21804 -0.56085,0.8476 -1.44449,1.43864 -2.58924,1.87706 -1.13955,0.43516 -2.51227,0.69497 -3.91129,0.90605 0,0 -0.32085,0.27929 -0.20946,0.92554 0.11171,0.6495 0.46504,0.76966 0.46504,0.76966 1.91895,-0.29228 3.90934,-0.66574 5.562,-1.60751 0.82454,-0.46764 1.56399,-1.09441 2.11282,-1.92253 0.54981,-0.82811 0.89339,-1.84783 0.9814,-3.03966 0.009,-0.12341 0.0136,-0.24032 0.0136,-0.36047 0.006,-1.39318 -0.63813,-2.54605 -1.50554,-3.36442 -1.30485,-1.23729 -3.0887,-1.90303 -4.55333,-2.30897 -1.46494,-0.40269 -2.61976,-0.52285 -2.65061,-0.5261 l -0.0874,-0.007 -2.80779,-0.55857 c -0.28026,0 -0.54461,0.1364 -0.70374,0.37022 -0.16042,0.23057 -0.19712,0.52609 -0.0987,0.78914 l 0.98984,2.64022 -0.0178,0.007 c -0.19096,0.0649 -0.29196,0.27279 -0.22635,0.4644 0.0643,0.1851 0.26532,0.28578 0.45367,0.23057 l 0.0331,0.10716 c -0.0399,0.0357 -0.0815,0.0714 -0.12211,0.11042 l -31.18934,0.971 -2.22617,-7.37832 c -1.04732,-0.42218 -1.68058,0.23707 -1.68058,0.23707 l 2.46713,8.50196 -13.81297,24.39199 c -0.17309,-0.0389 -0.35203,-0.0617 -0.53714,-0.0617 -1.36752,0 -2.47622,1.11065 -2.47622,2.47785 0,1.3672 1.1087,2.47459 2.47622,2.47459 0.89209,0 1.67084,-0.47089 2.10698,-1.17884 l 22.29671,3.03641 24.83787,-26.79839 0.0247,0.0779 c -0.14159,0.0909 -0.20946,0.26629 -0.15328,0.43192 0.0662,0.18835 0.27442,0.29227 0.46537,0.22407 l 0.11139,-0.0389 4.08601,12.25608 c 0,0 2.44699,5.10182 3.83887,7.58616 -0.56247,0.45466 -0.92359,1.14962 -0.92359,1.92902 0,1.3672 1.10902,2.4746 2.47687,2.4746 1.36753,0 2.47622,-1.1074 2.47622,-2.4746 0,-1.3672 -1.10869,-2.47784 -2.47622,-2.47784"
       style="fill:#18263a;fill-opacity:1;fill-rule:nonzero;stroke:none"
       id="path18" />
    <path
       inkscape:connector-curvature="0"
       d="m 546.78752,386.742 c -2.31774,0 -4.20421,1.8868 -4.20421,4.20552 0,2.31871 1.88647,4.20227 4.20421,4.20227 2.31807,0 4.20357,-1.88356 4.20357,-4.20227 0,-2.31872 -1.8855,-4.20552 -4.20357,-4.20552 l 0,0 z m 0,-2.1401 c 3.50406,0 6.34562,2.84156 6.34562,6.34562 0,3.50405 -2.84156,6.34562 -6.34562,6.34562 -3.5047,0 -6.34562,-2.84157 -6.34562,-6.34562 0,-3.50406 2.84092,-6.34562 6.34562,-6.34562"
       style="fill:#18263a;fill-opacity:1;fill-rule:nonzero;stroke:none"
       id="path20" />
    <path
       inkscape:connector-curvature="0"
       d="m 541.55904,391.37619 c 0,0 3.27966,-0.1916 3.56446,-0.95152 0.28513,-0.75992 -1.47339,-3.42287 -1.47339,-3.42287 l 0.90346,-0.52285 c 0,0 1.18793,2.94874 2.1388,2.94874 0.9512,0 2.61424,-2.85456 2.61424,-2.85456 l 0.90346,0.75992 c 0,0 -2.13946,2.23428 -2.04431,3.04291 0.0958,0.80863 3.37513,1.90304 3.37513,1.90304 l -0.38028,1.04569 -1.90141,-0.33449 4.18311,6.46578 1.56887,0.33124 0.14224,1.00023 -0.61833,0.61703 -3.84959,0.47413 -0.71283,-0.80538 0.18966,-0.95151 0.95054,-0.37996 -4.04022,-5.94293 -0.0481,2.18557 -1.23535,0 c 0,0 0.52317,-3.37416 -0.0951,-3.80283 -0.61735,-0.42542 -3.85024,0.52285 -3.85024,0.52285 l -0.28481,-1.32823"
       style="fill:#18263a;fill-opacity:1;fill-rule:nonzero;stroke:none"
       id="path22" />
    <path
       inkscape:connector-curvature="0"
       d="m 523.0145,385.66383 23.92533,-0.83461"
       style="fill:#18263a;fill-opacity:1;fill-rule:nonzero;stroke:none"
       id="path24" />
    <path
       inkscape:connector-curvature="0"
       d="m 523.00444,385.3748 23.92565,-0.83461 0.0195,0.58131 -23.92468,0.83461 -0.0204,-0.58131 0,0"
       style="fill:#18263a;fill-opacity:1;fill-rule:nonzero;stroke:none"
       id="path26" />
    <path
       inkscape:connector-curvature="0"
       d="m 545.16929,396.84174 -22.22201,-6.89445"
       style="fill:#18263a;fill-opacity:1;fill-rule:nonzero;stroke:none"
       id="path28" />
    <path
       inkscape:connector-curvature="0"
       d="m 522.86155,390.22333 0.17146,-0.55208 22.22169,6.89445 -0.17179,0.55532 -22.22136,-6.89769 0,0"
       style="fill:#18263a;fill-opacity:1;fill-rule:nonzero;stroke:none"
       id="path30" />
    <path
       inkscape:connector-curvature="0"
       d="m 533.77121,352.60425 c -0.4264,0.01 -0.79337,-0.052 -0.95509,-0.35073 l 0.6154,-0.0487 c 0,0.003 2.6e-4,0.003 2.6e-4,0.003 0.10132,-0.007 0.34196,-0.026 0.34781,-0.026 -10e-4,0 -0.002,-0.003 -0.003,-0.003 1.68253,-0.0779 2.98997,-0.43516 4.4585,-0.57805 -0.39295,0.29877 -0.58423,0.44166 -1.2477,0.60079 0.002,0.0195 -2.06963,0.37022 -3.21665,0.40269 z m -4.60139,-2.50382 c 0.23512,1.08791 1.87771,1.88355 3.06077,2.08165 0.31176,0.18186 0.34878,0.64949 0.79012,0.7112 0.78102,0.11366 3.55634,-0.20135 4.5202,-0.54233 0.65502,-0.23058 1.16423,-0.66899 1.78515,-0.91255 0.50759,-0.1981 1.38279,-0.37671 2.02482,-0.31176 0.3621,0.0389 0.72257,0.38645 1.19183,0.41243 0.47706,0.0227 0.95282,-0.0942 1.3935,-0.26629 0.25558,-0.10068 0.51571,-0.22084 0.75732,-0.35398 0.0935,-0.0487 0.14127,-0.10717 0.15913,-0.16887 0.0373,-0.12341 -0.0575,-0.26955 -0.13834,-0.42218 -0.0688,-0.12665 -0.14776,-0.25005 -0.24356,-0.36372 -0.19778,-0.22538 -0.45693,-0.37638 -0.74011,-0.47153 -0.68652,-0.23155 -1.46203,-0.22506 -2.17745,-0.21791 -0.46277,0.004 -0.92327,0.0322 -1.38571,0.0503 -1.20645,0.0484 -2.61327,0.10555 -3.81939,0.10295 -1.94948,-0.005 -3.42579,-0.20784 -5.25121,-0.40529 -0.94665,-0.10295 -2.21902,-0.27994 -1.92707,1.07785"
       style="fill:#18263a;fill-opacity:1;fill-rule:nonzero;stroke:none"
       id="path32" />
    <path
       inkscape:connector-curvature="0"
       d="m 572.54087,367.64993 c 1.917,-0.29227 3.89506,-0.66574 5.52595,-1.59128 l 0,0 0.10522,0.18511 c -1.67474,0.95152 -3.67682,1.32498 -5.59804,1.61726 l 0,0 -0.0331,-0.21109 0,0"
       style="fill:#18263a;fill-opacity:1;fill-rule:nonzero;stroke:none"
       id="path34" />
    <rect
       id="rect5"
       height="3.7880993"
       width="11.459341"
       y="-218.93692"
       x="745.28699"
       style="fill:none;stroke:#18263a;stroke-width:1.60954762000000007;stroke-miterlimit:4;stroke-opacity:1;stroke-dasharray:none"
       transform="matrix(0.6861334,0.72747574,-0.72747574,0.6861334,0,0)" />
    <path
       id="path7"
       d="m 718.71244,368.54566 c 2.69982,2.26885 5.21392,-0.60629 6.44903,-2.4431 0.24041,-0.33874 0.45232,-0.68792 0.63574,-1.04755 0.0813,-0.15129 0.14165,-0.24557 0.14165,-0.24557 l -0.009,-0.01 c 1.40258,-2.96528 0.95263,-6.62825 -1.45088,-9.17659 -2.58982,-2.74587 -6.63599,-3.31563 -9.83587,-1.62272 l -0.0186,-0.0197 -44.19348,25.3512 c 3.37077,5.92869 1.28418,11.59212 1.28418,11.59212 l 7.89059,8.36602 1.53097,-1.44397 c 1.74636,-1.25517 10.58363,0.35756 10.58363,0.35756 4.0891,-9.43718 26.99239,-29.65777 26.99239,-29.65777 z m -38.04421,14.43752 c -0.85706,-0.90871 -0.8062,-2.31913 0.0926,-3.16688 0.89883,-0.84775 2.31912,-0.80621 3.16687,0.0926 0.85706,0.90871 0.80621,2.31913 -0.0926,3.16687 -0.89882,0.84775 -2.31912,0.80621 -3.16687,-0.0926 z m 11.92855,-6.54738 c -0.85707,-0.90871 -0.80622,-2.31913 0.0926,-3.16688 0.90871,-0.85706 2.31913,-0.8062 3.16688,0.0926 0.85706,0.90871 0.8062,2.31912 -0.0926,3.16687 -0.90871,0.85707 -2.32844,0.79634 -3.16687,-0.0926 z m 11.11693,-7.36831 c -0.85707,-0.90871 -0.80622,-2.31913 0.0926,-3.16688 0.89882,-0.84775 2.31912,-0.8062 3.16687,0.0926 0.85706,0.90871 0.80621,2.31912 -0.0926,3.16687 -0.89883,0.84775 -2.31912,0.80621 -3.16687,-0.0926 z m 11.11692,-7.36831 c -0.85706,-0.90871 -0.8062,-2.31913 0.0926,-3.16688 0.89883,-0.84775 2.31912,-0.8062 3.16687,0.0926 0.85707,0.90871 0.80621,2.31912 -0.0926,3.16687 -0.89883,0.84775 -2.30981,0.81609 -3.16688,-0.0926 z"
       inkscape:connector-curvature="0"
       style="fill:none;stroke:#18263a;stroke-width:1.60954762000000007;stroke-miterlimit:4;stroke-opacity:1;stroke-dasharray:none" />
    <path
       id="path9"
       d="m 703.33006,351.64278 c 0.009,0.01 0.009,0.01 0.0186,0.0197 -0.95495,1.12464 -0.95608,2.80545 0.078,3.90182 1.1086,1.17539 2.95114,1.22928 4.12653,0.12069 0.0198,-0.0186 0.0401,-0.0565 0.05,-0.0658 l 0.009,0.01 1.2149,-1.14586 0.99681,1.05687 2.95037,-1.7002 -1.53714,-1.62975 1.2149,-1.14586 -0.009,-0.01 c 0.0197,-0.0186 0.0587,-0.0367 0.0686,-0.046 1.1754,-1.10859 1.22929,-2.95114 0.12069,-4.12653 -1.03407,-1.09637 -2.70219,-1.20279 -3.8906,-0.30588 -0.009,-0.01 -0.009,-0.01 -0.0186,-0.0197 -1.40671,-1.49146 -3.76747,-1.5605 -5.25893,-0.1538 -1.4909,1.38751 -1.55007,3.73896 -0.13405,5.2403 z"
       inkscape:connector-curvature="0"
       style="fill:none;stroke:#18263a;stroke-width:1.60954762000000007;stroke-miterlimit:4;stroke-opacity:1;stroke-dasharray:none" />
    <path
       id="path11"
       d="m 691.43004,358.2006 c 0.009,0.01 0.009,0.01 0.0186,0.0197 -0.95495,1.12465 -0.95608,2.80546 0.078,3.90183 1.10859,1.17539 2.95113,1.22928 4.12652,0.12068 0.0197,-0.0186 0.0401,-0.0565 0.0499,-0.0658 l 0.009,0.01 1.2149,-1.14586 1.14585,1.21491 2.95037,-1.70021 -1.68619,-1.78778 1.22478,-1.15517 -0.009,-0.01 c 0.0197,-0.0186 0.0587,-0.0367 0.0686,-0.046 1.17539,-1.10859 1.22927,-2.95114 0.12068,-4.12652 -1.03407,-1.09638 -2.70219,-1.20279 -3.8906,-0.30589 -0.009,-0.01 -0.009,-0.01 -0.0186,-0.0197 -1.4067,-1.49146 -3.76746,-1.56051 -5.25892,-0.1538 -1.47226,1.40727 -1.55062,3.75814 -0.14391,5.24961 z"
       inkscape:connector-curvature="0"
       style="fill:none;stroke:#18263a;stroke-width:1.60954762000000007;stroke-miterlimit:4;stroke-opacity:1;stroke-dasharray:none" />
    <path
       id="path13"
       d="m 679.66975,364.90657 c 0.009,0.01 0.009,0.01 0.0186,0.0197 -0.95496,1.12465 -0.95609,2.80545 0.078,3.90182 1.1086,1.17539 2.95114,1.22928 4.12653,0.12069 0.0198,-0.0186 0.0401,-0.0565 0.0499,-0.0658 l 0.009,0.01 1.2149,-1.14586 1.15517,1.22477 2.95037,-1.7002 -1.68617,-1.78778 1.21489,-1.14586 -0.009,-0.01 c 0.0197,-0.0186 0.0587,-0.0367 0.0686,-0.046 1.1754,-1.10859 1.22929,-2.95114 0.12069,-4.12653 -1.03408,-1.09637 -2.70219,-1.20279 -3.8906,-0.30588 -0.009,-0.01 -0.009,-0.01 -0.0186,-0.0197 -1.4067,-1.49146 -3.76746,-1.56051 -5.25893,-0.1538 -1.48102,1.37819 -1.55007,3.73895 -0.14336,5.23041 z"
       inkscape:connector-curvature="0"
       style="fill:none;stroke:#18263a;stroke-width:1.60954762000000007;stroke-miterlimit:4;stroke-opacity:1;stroke-dasharray:none" />
    <path
       id="path15"
       d="m 677.5507,373.97875 -2.14266,-2.27176 1.21489,-1.14586 -0.009,-0.01 c 0.0198,-0.0186 0.0587,-0.0367 0.0686,-0.046 1.17538,-1.10859 1.22927,-2.95114 0.12068,-4.12653 -1.03407,-1.09637 -2.70219,-1.20279 -3.8906,-0.30588 -0.009,-0.01 -0.009,-0.01 -0.0186,-0.0197 -1.4067,-1.49146 -3.76746,-1.5605 -5.25892,-0.15379 -1.49147,1.4067 -1.56051,3.76746 -0.1538,5.25892 0.009,0.01 0.009,0.01 0.0186,0.0197 -0.95495,1.12465 -0.95608,2.80546 0.078,3.90183 1.10859,1.17539 2.95114,1.22928 4.12653,0.12069 0.0197,-0.0186 0.0494,-0.0466 0.0499,-0.0658 l 0.009,0.01 1.21491,-1.14586 1.59302,1.68901 2.97944,-1.70896 z"
       inkscape:connector-curvature="0"
       style="fill:none;stroke:#18263a;stroke-width:1.60954762000000007;stroke-miterlimit:4;stroke-opacity:1;stroke-dasharray:none" />
    <path
       inkscape:connector-curvature="0"
       style="fill:none;stroke:#18263a;stroke-width:1.60954762000000007;stroke-miterlimit:4;stroke-opacity:1;stroke-dasharray:none"
       id="path9-4"
       d="m 699.88618,387.1345 33.00023,0"
       class="fil0 str0" />
    <path
       inkscape:connector-curvature="0"
       style="fill:none;stroke:#18263a;stroke-width:1.60954762000000007;stroke-miterlimit:4;stroke-opacity:1;stroke-dasharray:none"
       id="path11-0"
       d="m 677.66836,401.15093 54.99941,0"
       class="fil0 str0" />
    <path
       inkscape:connector-curvature="0"
       style="fill:none;stroke:#18263a;stroke-width:1.60954762000000007;stroke-miterlimit:4;stroke-opacity:1;stroke-dasharray:none"
       id="path13-8"
       d="m 694.2925,394.1368 38.54495,0"
       class="fil0 str0" />
    <path
       inkscape:connector-curvature="0"
       style="fill:none;stroke:#18263a;stroke-width:1.60954762000000007;stroke-miterlimit:4;stroke-opacity:1;stroke-dasharray:none"
       id="path15-9"
       d="m 706.45878,380.12036 26.50724,0"
       class="fil0 str0" />
    <path
       inkscape:connector-curvature="0"
       style="fill:none;stroke:#18263a;stroke-width:1.60954762000000007;stroke-miterlimit:4;stroke-opacity:1;stroke-dasharray:none"
       id="path17"
       d="m 713.93004,373.11808 19.11908,0"
       class="fil0 str0" />
    <path
       inkscape:connector-curvature="0"
       style="fill:#18263a;fill-opacity:1;fill-rule:evenodd;stroke:none"
       id="path19"
       d="m 712.60112,395.27613 c 1.8807,-1.2699 3.28527,-2.23123 4.18991,-2.89583 0.90464,-0.65276 1.85689,-1.47167 2.83295,-2.44489 0.97606,-0.97319 1.79737,-2.07695 2.46395,-3.29937 0.52374,-0.90199 0.97605,-1.94641 1.34505,-3.13323 0.369,-1.17496 0.55945,-2.31431 0.59516,-3.39433 0,-1.00879 -0.13094,-1.97013 -0.40471,-2.87212 -0.26187,-0.91385 -0.71419,-1.66156 -1.35697,-2.26683 -0.64276,-0.59343 -1.47598,-0.89011 -2.51156,-0.89011 -0.99986,0 -1.94021,0.20174 -2.82104,0.59339 -0.86893,0.40354 -1.4879,1.04442 -1.83309,1.94641 0,0.0831 -0.0476,0.18989 -0.11903,0.34417 0.0238,0.18989 0.11903,0.33232 0.29758,0.43914 0.17855,0.1068 0.33329,0.15428 0.47613,0.15428 0.0714,0 0.27377,-0.0356 0.58325,-0.10682 0.32139,-0.0712 0.58326,-0.11869 0.79751,-0.11869 0.63087,0 1.19031,0.22551 1.70215,0.66463 0.49993,0.43913 0.7499,0.97321 0.7499,1.60223 0,0.45098 -0.13093,0.87825 -0.3809,1.2699 -0.24996,0.39166 -0.59515,0.71209 -1.03557,0.9376 -0.44042,0.23737 -0.92845,0.34417 -1.45219,0.34417 -0.95225,0 -1.76166,-0.28483 -2.42823,-0.86639 -0.65467,-0.5934 -0.98797,-1.34111 -0.98797,-2.2787 0,-1.1987 0.369,-2.23123 1.0951,-3.10948 0.73798,-0.87825 1.66643,-1.53101 2.80913,-1.97015 1.1308,-0.451 2.2735,-0.66462 3.44001,-0.66462 1.27364,0 2.48776,0.32045 3.61857,0.97321 1.14269,0.64088 2.03543,1.53099 2.702,2.63475 0.66658,1.11562 1.01177,2.30244 1.01177,3.58422 0,2.2787 -0.7618,4.39125 -2.2854,6.34952 -1.52361,1.95826 -3.40431,3.65545 -5.654,5.10337 -1.49979,0.98505 -3.92804,2.3143 -7.27282,3.98774 l -0.16665,-0.61717 z m 16.53348,-18.3602 c 0,-0.42727 0.15473,-0.78331 0.46422,-1.06816 0.29758,-0.29671 0.66657,-0.43911 1.10699,-0.43911 0.38091,0 0.738,0.16614 1.05938,0.4866 0.32139,0.30857 0.47612,0.67648 0.47612,1.08002 0,0.42725 -0.16664,0.79516 -0.47612,1.09187 -0.33329,0.28483 -0.70229,0.42726 -1.1189,0.42726 -0.44042,0 -0.7975,-0.14243 -1.08318,-0.46286 -0.28568,-0.30859 -0.42851,-0.6765 -0.42851,-1.11562 z m 0,6.21897 c 0,-0.42725 0.15473,-0.79518 0.44041,-1.08001 0.29758,-0.29671 0.66658,-0.43914 1.1308,-0.43914 0.38091,0 0.72609,0.1543 1.05938,0.47474 0.30948,0.32045 0.47612,0.66462 0.47612,1.04441 0,0.46286 -0.15473,0.83077 -0.45232,1.12748 -0.30948,0.29671 -0.66656,0.451 -1.08318,0.451 -0.46422,0 -0.83322,-0.15429 -1.1308,-0.43912 -0.28568,-0.28485 -0.44041,-0.66462 -0.44041,-1.13936 z"
       class="fil1 str1" />
    <path
       inkscape:connector-curvature="0"
       class="st18"
       d="m 725.16884,494.63988 -9.9778,-3.93065 v -7.8613 l 9.9778,-3.93065 c 1.20943,0 2.11651,0.90707 2.11651,2.1165 v 11.79196 c 0,0.90707 -0.90708,1.81414 -2.11651,1.81414 z m -18.74617,-13.90846 c -4.83772,0 -8.76838,-3.93064 -8.76838,-8.76837 0,-4.83772 3.93066,-8.76837 8.76838,-8.76837 4.83772,0 8.76837,3.93065 8.76837,8.76837 0,4.83773 -3.93065,8.76837 -8.76837,8.76837 z m -17.83911,0 c -4.83772,0 -8.76837,-3.93064 -8.76837,-8.76837 0,-4.83772 3.93065,-8.76837 8.76837,-8.76837 4.83773,0 8.76837,3.93065 8.76837,8.76837 0.30236,4.83773 -3.62829,8.76837 -8.76837,8.76837 z m 24.79334,0 v 17.83911 h -10.88488 c 0,1.51179 -0.90707,3.02358 -1.81416,3.93065 h 1.20944 l 7.86131,17.83911 h -2.41887 l -2.72122,-6.04716 h -5.14008 v 9.97781 h -2.11651 v -9.97781 h -5.14008 l -2.72122,6.04716 h -2.1165 l 7.8613,-17.83911 h 0.60472 c -1.20943,-0.90707 -1.81415,-2.1165 -1.81415,-3.93065 h -12.69903 v -17.83911 h 6.95423 17.83911 7.25659 z m -15.72261,22.37448 c 0,0 -0.30236,0 0,0 l -4.53537,9.37309 h 4.53537 v -9.37309 z m 1.81415,-0.30236 v 9.37309 h 4.23301 l -4.23301,-9.37309 c 0.30236,0 0.30236,0 0,0 z"
       id="path717"
       style="fill:none;stroke:#18263a;stroke-width:1.38665152000000003;stroke-miterlimit:4;stroke-opacity:1;stroke-dasharray:none;display:inline" />
    <path
       inkscape:connector-curvature="0"
       class="st18"
       d="m 579.61916,480.95898 -28.18953,-19.4642 -28.18953,19.4642 28.18953,19.46419 28.18953,-19.46419 z m -28.52512,23.49126 -25.16922,-16.44389 -3.35589,3.3559 28.18952,19.4642 28.18953,-19.4642 -3.3559,-3.3559 -24.49804,16.44389 z m 0,10.73888 -25.16922,-16.44389 -3.35589,3.35589 28.18952,19.4642 28.18953,-19.4642 -3.3559,-3.35589 -24.49804,16.44389 z"
       id="path897"
       style="fill:none;stroke:#18263a;stroke-width:1.40953444999999999;stroke-miterlimit:4;stroke-opacity:1;stroke-dasharray:none;display:inline" />
    <text
       xml:space="preserve"
       style="font-size:14px;font-style:normal;font-variant:normal;font-weight:normal;font-stretch:normal;text-align:center;line-height:100%;letter-spacing:0px;word-spacing:0px;writing-mode:lr-tb;text-anchor:middle;fill:#18263a;fill-opacity:1;stroke:none;display:inline;font-family:TeX Gyre Heros;-inkscape-font-specification:TeX Gyre Heros"
       x="551.38892"
       y="545.92816"
       id="text4075-1-7-6-1"
       sodipodi:linespacing="100%"><tspan
         y="545.92816"
         x="551.38892"
         sodipodi:role="line"
         id="tspan7602">Literature</tspan></text>
    <text
       xml:space="preserve"
       style="font-size:14px;font-style:normal;font-variant:normal;font-weight:normal;font-stretch:normal;text-align:center;line-height:100%;letter-spacing:0px;word-spacing:0px;writing-mode:lr-tb;text-anchor:middle;fill:#18263a;fill-opacity:1;stroke:none;display:inline;font-family:TeX Gyre Heros;-inkscape-font-specification:TeX Gyre Heros"
       x="698.03296"
       y="545.92816"
       id="text4075-1-7-6-4"
       sodipodi:linespacing="100%"><tspan
         sodipodi:role="line"
         id="tspan10172"
         x="698.03296"
         y="545.92816">Cinematography</tspan></text>
  </g>
</svg>
