<?xml version="1.0" encoding="UTF-8" standalone="no"?>
<!-- Created with Inkscape (http://www.inkscape.org/) -->

<svg
   xmlns:dc="http://purl.org/dc/elements/1.1/"
   xmlns:cc="http://creativecommons.org/ns#"
   xmlns:rdf="http://www.w3.org/1999/02/22-rdf-syntax-ns#"
   xmlns:svg="http://www.w3.org/2000/svg"
   xmlns="http://www.w3.org/2000/svg"
   xmlns:sodipodi="http://sodipodi.sourceforge.net/DTD/sodipodi-0.dtd"
   xmlns:inkscape="http://www.inkscape.org/namespaces/inkscape"
   width="247.9496"
   height="204.3876"
   id="svg9839"
   version="1.1"
   inkscape:version="0.48.4 r9939"
   sodipodi:docname="hob.svg">
  <defs
     id="defs9841" />
  <sodipodi:namedview
     id="base"
     pagecolor="#ffffff"
     bordercolor="#666666"
     borderopacity="1.0"
     inkscape:pageopacity="0.0"
     inkscape:pageshadow="2"
     inkscape:zoom="1.4"
     inkscape:cx="89.321526"
     inkscape:cy="73.007246"
     inkscape:document-units="px"
     inkscape:current-layer="layer1"
     showgrid="false"
     fit-margin-top="0"
     fit-margin-left="0"
     fit-margin-right="0"
     fit-margin-bottom="0"
     inkscape:window-width="1276"
     inkscape:window-height="761"
     inkscape:window-x="0"
     inkscape:window-y="37"
     inkscape:window-maximized="0" />
  <metadata
     id="metadata9844">
    <rdf:RDF>
      <cc:Work
         rdf:about="">
        <dc:format>image/svg+xml</dc:format>
        <dc:type
           rdf:resource="http://purl.org/dc/dcmitype/StillImage" />
        <dc:title></dc:title>
      </cc:Work>
    </rdf:RDF>
  </metadata>
  <g
     inkscape:label="Layer 1"
     inkscape:groupmode="layer"
     id="layer1"
     transform="translate(-502.93552,-344.59256)">
    <g
       id="g5658"
       transform="matrix(0.42477549,0,0,0.42477549,448.99526,71.783383)"
       style="fill:#000000;stroke:none;display:inline">
      <path
         id="path14"
         style="fill:#000000;fill-opacity:1;fill-rule:nonzero;stroke:none"
         d="m 174.04473,701.80738 c -23.18031,0 -42.04031,18.86076 -42.04031,42.04108 0,23.18031 18.86,42.03343 42.04031,42.03343 23.18108,0 42.04108,-18.85312 42.04108,-42.03343 0,-23.18032 -18.86,-42.04108 -42.04108,-42.04108 l 0,0 z m 0,-5.02291 c 25.99146,0 47.06017,21.07023 47.06017,47.06399 0,25.98611 -21.06871,47.05634 -47.06017,47.05634 -25.9907,0 -47.0594,-21.07023 -47.0594,-47.05634 0,-25.99376 21.0687,-47.06399 47.0594,-47.06399"
         inkscape:connector-curvature="0" />
      <path
         id="path16"
         style="fill:#000000;fill-opacity:1;fill-rule:nonzero;stroke:none"
         d="m 313.75046,701.80738 c -23.18107,0 -42.03878,18.86076 -42.03878,42.04108 0,23.18031 18.85771,42.03343 42.03878,42.03343 23.18261,0 42.04108,-18.85312 42.04108,-42.03343 0,-23.18032 -18.85847,-42.04108 -42.04108,-42.04108 l 0,0 z m 0,-5.02291 c 25.99147,0 47.06093,21.07023 47.06093,47.06399 0,25.98611 -21.06946,47.05634 -47.06093,47.05634 -25.98993,0 -47.05863,-21.07023 -47.05863,-47.05634 0,-25.99376 21.0687,-47.06399 47.05863,-47.06399"
         inkscape:connector-curvature="0" />
      <path
         id="path18"
         style="fill:#000000;fill-opacity:1;fill-rule:nonzero;stroke:none"
         d="m 231.28069,747.73988 -18.50526,-65.62659 73.48052,-2.69112 2.18959,6.85776 -57.16485,61.45995 z m -51.46076,-2.99693 c 0.0336,-0.24465 0.055,-0.49694 0.055,-0.74923 0,-2.20947 -1.224,-4.12078 -3.02904,-5.11466 l 31.95091,-54.39575 18.8256,64.65564 -47.80252,-4.396 z m 133.51693,-6.58254 c -0.50688,0 -0.99618,0.0688 -1.46406,0.19113 -2.06574,-4.15135 -5.57031,-11.2767 -6.69263,-14.0825 -1.50229,-3.7538 -9.62457,-28.75368 -10.88909,-32.65274 l 0.37538,-0.12997 c 0.44877,-0.1529 0.68731,-0.6422 0.53287,-1.09327 -0.15443,-0.45106 -0.64602,-0.68807 -1.09403,-0.53516 l -0.12156,0.0459 -5.09783,-16.42958 c 0.38073,-0.18349 0.57262,-0.62691 0.43042,-1.03975 -0.15443,-0.45107 -0.64296,-0.69572 -1.09403,-0.53517 l -0.0466,0.0153 -1.34709,-3.02751 3.58102,0.75688 c 0.0229,0 0.0482,0 0.0803,0.008 0.92277,0.10703 5.41511,0.74923 9.46555,2.47705 2.02521,0.86391 3.92047,1.9954 5.2148,3.34096 1.29357,1.36085 2.01528,2.81344 2.02981,4.74004 0,0.16819 -0.007,0.35932 -0.0206,0.55045 -0.16896,2.22476 -0.76605,3.88378 -1.65137,5.22169 -1.32033,1.9954 -3.4006,3.38683 -6.09554,4.41894 -2.68271,1.02446 -5.91434,1.63608 -9.2079,2.13302 0,0 -0.75535,0.65749 -0.49312,2.17888 0.263,1.52905 1.0948,1.81192 1.0948,1.81192 4.51756,-0.68807 9.20331,-1.56727 13.09397,-3.78438 1.94112,-1.10091 3.68194,-2.57644 4.97398,-4.52597 1.29434,-1.94954 2.1032,-4.35014 2.31039,-7.15593 0.0206,-0.29052 0.0321,-0.56575 0.0321,-0.84862 0.0138,-3.2798 -1.50229,-5.99386 -3.54433,-7.92045 -3.07185,-2.91283 -7.27137,-4.4801 -10.71937,-5.43575 -3.44875,-0.94801 -6.1674,-1.23089 -6.24003,-1.23853 l -0.20565,-0.0153 -6.61006,-1.31498 c -0.65978,0 -1.2821,0.3211 -1.65672,0.87156 -0.37767,0.54281 -0.46407,1.23852 -0.23242,1.85778 l 2.33027,6.21557 -0.042,0.0153 c -0.44954,0.15291 -0.68731,0.6422 -0.53287,1.09327 0.15137,0.43578 0.62461,0.67278 1.06804,0.54281 l 0.078,0.25229 c -0.094,0.0841 -0.1919,0.1682 -0.28746,0.25994 l -73.42548,2.28592 -5.2408,-17.36994 c -2.46559,-0.99388 -3.9564,0.5581 -3.9564,0.5581 l 5.80807,20.01519 -32.51828,57.42326 c -0.40749,-0.0917 -0.82874,-0.14526 -1.26452,-0.14526 -3.2194,0 -5.82948,2.61467 -5.82948,5.83331 0,3.21864 2.61008,5.82566 5.82948,5.82566 2.10014,0 3.93347,-1.10856 4.96022,-2.77522 l 52.49057,7.14828 58.47295,-63.08837 0.0581,0.18349 c -0.33333,0.21406 -0.49311,0.6269 -0.36085,1.01681 0.15596,0.44342 0.64602,0.68807 1.09556,0.52752 l 0.26223,-0.0917 9.61922,28.85307 c 0,0 5.76068,12.01064 9.03742,17.85923 -1.32416,1.07034 -2.1743,2.70641 -2.1743,4.54127 0,3.21864 2.61084,5.82566 5.83101,5.82566 3.2194,0 5.82948,-2.60702 5.82948,-5.82566 0,-3.21864 -2.61008,-5.83331 -5.82948,-5.83331"
         inkscape:connector-curvature="0" />
      <path
         id="path20"
         style="fill:#000000;fill-opacity:1;fill-rule:nonzero;stroke:none"
         d="m 230.22106,741.47079 c -5.4564,0 -9.8975,4.44188 -9.8975,9.90057 0,5.45868 4.4411,9.89291 9.8975,9.89291 5.45716,0 9.89598,-4.43423 9.89598,-9.89291 0,-5.45869 -4.43882,-9.90057 -9.89598,-9.90057 l 0,0 z m 0,-5.0382 c 8.24919,0 14.93876,6.68957 14.93876,14.93877 0,8.24919 -6.68957,14.93876 -14.93876,14.93876 -8.25072,0 -14.93876,-6.68957 -14.93876,-14.93876 0,-8.2492 6.68804,-14.93877 14.93876,-14.93877"
         inkscape:connector-curvature="0" />
      <path
         id="path22"
         style="fill:#000000;fill-opacity:1;fill-rule:nonzero;stroke:none"
         d="m 217.91225,752.38053 c 0,0 7.72091,-0.45107 8.3914,-2.24005 0.67125,-1.78899 -3.46864,-8.05807 -3.46864,-8.05807 l 2.1269,-1.23088 c 0,0 2.79662,6.94186 5.03514,6.94186 2.23929,0 6.15441,-6.72015 6.15441,-6.72015 l 2.1269,1.78898 c 0,0 -5.03667,5.25992 -4.81267,7.16358 0.22554,1.90366 7.94568,4.4801 7.94568,4.4801 l -0.89525,2.46176 -4.47628,-0.78746 9.84781,15.22164 3.69341,0.77981 0.33486,2.35473 -1.45565,1.45259 -9.06265,1.1162 -1.67813,-1.89601 0.44648,-2.24005 2.23776,-0.89449 -9.51142,-13.99076 -0.11315,5.14524 -2.90824,0 c 0,0 1.23164,-7.94339 -0.22401,-8.95256 -1.45335,-1.00152 -9.06417,1.23088 -9.06417,1.23088 l -0.67049,-3.12689"
         inkscape:connector-curvature="0" />
      <path
         id="path24"
         style="fill:#000000;fill-opacity:1;fill-rule:nonzero;stroke:none"
         d="m 174.25498,738.93258 56.32464,-1.96482"
         inkscape:connector-curvature="0" />
      <path
         id="path26"
         style="fill:#000000;fill-opacity:1;fill-rule:nonzero;stroke:none"
         d="m 174.23128,738.25215 56.32541,-1.96482 0.0459,1.3685 -56.32312,1.96482 -0.0481,-1.3685 0,0"
         inkscape:connector-curvature="0" />
      <path
         id="path28"
         style="fill:#000000;fill-opacity:1;fill-rule:nonzero;stroke:none"
         d="m 226.41145,765.24743 -52.31473,-16.2308"
         inkscape:connector-curvature="0" />
      <path
         id="path30"
         style="fill:#000000;fill-opacity:1;fill-rule:nonzero;stroke:none"
         d="m 173.89489,749.66647 0.40366,-1.29969 52.31397,16.23081 -0.40444,1.30733 -52.31319,-16.23845 0,0"
         inkscape:connector-curvature="0" />
      <path
         id="path32"
         style="fill:#000000;fill-opacity:1;fill-rule:nonzero;stroke:none"
         d="m 199.57825,661.10422 c -1.00382,0.0229 -1.86773,-0.12233 -2.24846,-0.82569 l 1.44876,-0.11467 c 0,0.008 6.2e-4,0.008 6.2e-4,0.008 0.23853,-0.0153 0.80504,-0.0612 0.8188,-0.0612 -0.003,0 -0.004,-0.008 -0.006,-0.008 3.96099,-0.18348 7.03896,-1.02446 10.49613,-1.36085 -0.92507,0.70336 -1.37538,1.03975 -2.9373,1.41437 0.005,0.0459 -4.8723,0.87156 -7.57259,0.94801 z m -10.83252,-5.89447 c 0.55351,2.56115 4.42047,4.43423 7.20562,4.90059 0.73394,0.42813 0.8211,1.52904 1.86008,1.6743 1.83868,0.26759 8.37229,-0.474 10.64139,-1.27675 1.54204,-0.54281 2.74081,-1.57491 4.20258,-2.14831 1.19495,-0.46636 3.25533,-0.88684 4.76679,-0.73394 0.85245,0.0917 1.70107,0.90978 2.8058,0.97095 1.12308,0.0535 2.24311,-0.22172 3.28056,-0.62691 0.60168,-0.237 1.21407,-0.51988 1.78287,-0.83333 0.22018,-0.11468 0.33257,-0.25229 0.37462,-0.39755 0.0879,-0.29052 -0.13532,-0.63456 -0.32569,-0.99388 -0.16208,-0.29817 -0.34786,-0.58868 -0.57339,-0.85627 -0.4656,-0.53058 -1.07568,-0.88608 -1.74235,-1.11008 -1.6162,-0.54511 -3.44188,-0.52982 -5.12612,-0.513 -1.08944,0.01 -2.17354,0.0757 -3.26222,0.1185 -2.8402,0.11392 -6.15211,0.24847 -8.99154,0.24236 -4.58943,-0.0115 -8.06495,-0.4893 -12.36233,-0.95413 -2.22858,-0.24235 -5.22398,-0.65902 -4.53667,2.53745"
         inkscape:connector-curvature="0" />
      <path
         id="path34"
         style="fill:#000000;fill-opacity:1;fill-rule:nonzero;stroke:none"
         d="m 290.8492,696.52453 c 4.51298,-0.68807 9.16968,-1.56727 13.00911,-3.74616 l 0,0 0.24771,0.43578 c -3.94265,2.24005 -8.65592,3.11925 -13.17884,3.80732 l 0,0 -0.078,-0.49694 0,0"
         inkscape:connector-curvature="0" />
    </g>
    <g
       style="display:inline"
       id="g6035"
       transform="translate(70.344275,9.8758025)">
      <rect
         transform="matrix(0.6861334,0.72747574,-0.72747574,0.6861334,0,0)"
         style="fill:none;stroke:#000000;stroke-width:1.60954762;stroke-miterlimit:4;stroke-opacity:1;stroke-dasharray:none"
         x="689.83704"
         y="-174.53929"
         width="11.459341"
         height="3.7880993"
         id="rect5" />
      <path
         style="fill:none;stroke:#000000;stroke-width:1.60954762;stroke-miterlimit:4;stroke-opacity:1;stroke-dasharray:none"
         inkscape:connector-curvature="0"
         d="m 648.36816,358.66986 c 2.69982,2.26885 5.21392,-0.60629 6.44903,-2.4431 0.24042,-0.33874 0.45233,-0.68792 0.63574,-1.04755 0.0813,-0.15129 0.14165,-0.24557 0.14165,-0.24557 l -0.009,-0.01 c 1.40258,-2.96528 0.95263,-6.62825 -1.45088,-9.17659 -2.58982,-2.74587 -6.63599,-3.31563 -9.83587,-1.62272 l -0.0186,-0.0197 -44.19348,25.3512 c 3.37077,5.92869 1.28418,11.59212 1.28418,11.59212 l 7.89059,8.36602 1.53097,-1.44397 c 1.74636,-1.25517 10.58363,0.35756 10.58363,0.35756 4.0891,-9.43718 26.99239,-29.65777 26.99239,-29.65777 z m -38.0442,14.43752 c -0.85706,-0.90871 -0.80621,-2.31913 0.0926,-3.16688 0.89883,-0.84775 2.31912,-0.80621 3.16687,0.0926 0.85706,0.90871 0.80621,2.31913 -0.0926,3.16687 -0.89883,0.84775 -2.31912,0.80621 -3.16687,-0.0926 z M 622.2525,366.56 c -0.85707,-0.90871 -0.80622,-2.31913 0.0926,-3.16688 0.90871,-0.85706 2.31913,-0.8062 3.16688,0.0926 0.85706,0.90871 0.80621,2.31912 -0.0926,3.16687 -0.90871,0.85707 -2.32844,0.79634 -3.16687,-0.0926 z m 11.11693,-7.36831 c -0.85707,-0.90871 -0.80622,-2.31913 0.0926,-3.16688 0.89882,-0.84775 2.31912,-0.8062 3.16687,0.0926 0.85706,0.90871 0.80621,2.31912 -0.0926,3.16687 -0.89883,0.84775 -2.31912,0.80621 -3.16687,-0.0926 z m 11.11692,-7.36831 c -0.85706,-0.90871 -0.8062,-2.31913 0.0926,-3.16688 0.89883,-0.84775 2.31912,-0.8062 3.16687,0.0926 0.85707,0.90871 0.80621,2.31912 -0.0926,3.16687 -0.89883,0.84775 -2.30981,0.81609 -3.16688,-0.0926 z"
         id="path7" />
      <path
         style="fill:none;stroke:#000000;stroke-width:1.60954762;stroke-miterlimit:4;stroke-opacity:1;stroke-dasharray:none"
         inkscape:connector-curvature="0"
         d="m 632.98578,341.76698 c 0.009,0.01 0.009,0.01 0.0186,0.0197 -0.95495,1.12464 -0.95608,2.80545 0.078,3.90182 1.1086,1.17539 2.95114,1.22928 4.12653,0.12069 0.0198,-0.0186 0.0401,-0.0565 0.05,-0.0658 l 0.009,0.01 1.2149,-1.14586 0.9968,1.05687 2.95037,-1.7002 -1.53713,-1.62975 1.2149,-1.14586 -0.009,-0.01 c 0.0197,-0.0186 0.0587,-0.0367 0.0686,-0.046 1.1754,-1.10859 1.22929,-2.95114 0.12069,-4.12653 -1.03407,-1.09637 -2.70219,-1.20279 -3.8906,-0.30588 -0.009,-0.01 -0.009,-0.01 -0.0186,-0.0197 -1.40671,-1.49146 -3.76747,-1.5605 -5.25893,-0.1538 -1.4909,1.38751 -1.55007,3.73896 -0.13405,5.2403 z"
         id="path9" />
      <path
         style="fill:none;stroke:#000000;stroke-width:1.60954762;stroke-miterlimit:4;stroke-opacity:1;stroke-dasharray:none"
         inkscape:connector-curvature="0"
         d="m 621.08576,348.3248 c 0.009,0.01 0.009,0.01 0.0186,0.0197 -0.95495,1.12465 -0.95608,2.80546 0.078,3.90183 1.10859,1.17539 2.95113,1.22928 4.12652,0.12068 0.0197,-0.0186 0.0401,-0.0565 0.0499,-0.0658 l 0.009,0.01 1.2149,-1.14586 1.14586,1.21491 2.95037,-1.70021 -1.68619,-1.78778 1.22478,-1.15517 -0.009,-0.01 c 0.0197,-0.0186 0.0587,-0.0367 0.0686,-0.046 1.17539,-1.10859 1.22927,-2.95114 0.12068,-4.12652 -1.03407,-1.09638 -2.70219,-1.20279 -3.8906,-0.30589 -0.009,-0.01 -0.009,-0.01 -0.0186,-0.0197 -1.4067,-1.49146 -3.76746,-1.56051 -5.25892,-0.1538 -1.47227,1.40727 -1.55063,3.75814 -0.14392,5.24961 z"
         id="path11" />
      <path
         style="fill:none;stroke:#000000;stroke-width:1.60954762;stroke-miterlimit:4;stroke-opacity:1;stroke-dasharray:none"
         inkscape:connector-curvature="0"
         d="m 609.32547,355.03077 c 0.009,0.01 0.009,0.01 0.0186,0.0197 -0.95495,1.12465 -0.95608,2.80545 0.078,3.90182 1.10859,1.17539 2.95113,1.22928 4.12652,0.12069 0.0198,-0.0186 0.0401,-0.0565 0.0499,-0.0658 l 0.009,0.01 1.2149,-1.14586 1.15517,1.22477 2.95037,-1.7002 -1.68617,-1.78778 1.21489,-1.14586 -0.009,-0.01 c 0.0197,-0.0186 0.0587,-0.0367 0.0686,-0.046 1.1754,-1.10859 1.22929,-2.95114 0.12069,-4.12653 -1.03407,-1.09637 -2.70219,-1.20279 -3.8906,-0.30588 -0.009,-0.01 -0.009,-0.01 -0.0186,-0.0197 -1.4067,-1.49146 -3.76746,-1.56051 -5.25893,-0.1538 -1.48102,1.37819 -1.55007,3.73895 -0.14336,5.23041 z"
         id="path13" />
      <path
         style="fill:none;stroke:#000000;stroke-width:1.60954762;stroke-miterlimit:4;stroke-opacity:1;stroke-dasharray:none"
         inkscape:connector-curvature="0"
         d="m 607.20642,364.10295 -2.14266,-2.27176 1.2149,-1.14586 -0.009,-0.01 c 0.0198,-0.0186 0.0587,-0.0367 0.0686,-0.046 1.17538,-1.10859 1.22927,-2.95114 0.12068,-4.12653 -1.03407,-1.09637 -2.70219,-1.20279 -3.8906,-0.30588 -0.009,-0.01 -0.009,-0.01 -0.0186,-0.0197 -1.4067,-1.49146 -3.76746,-1.5605 -5.25892,-0.15379 -1.49147,1.4067 -1.56051,3.76746 -0.1538,5.25892 0.009,0.01 0.009,0.01 0.0186,0.0197 -0.95495,1.12465 -0.95608,2.80546 0.078,3.90183 1.10859,1.17539 2.95114,1.22928 4.12653,0.12069 0.0197,-0.0186 0.0494,-0.0466 0.0499,-0.0658 l 0.009,0.01 1.21491,-1.14586 1.59302,1.68901 2.97944,-1.70896 z"
         id="path15" />
      <path
         class="fil0 str0"
         d="m 629.5419,377.2587 33.00023,0"
         id="path9-4"
         style="fill:none;stroke:#000000;stroke-width:1.60954762;stroke-miterlimit:4;stroke-opacity:1;stroke-dasharray:none"
         inkscape:connector-curvature="0" />
      <path
         class="fil0 str0"
         d="m 607.32409,391.27513 54.99941,0"
         id="path11-0"
         style="fill:none;stroke:#000000;stroke-width:1.60954762;stroke-miterlimit:4;stroke-opacity:1;stroke-dasharray:none"
         inkscape:connector-curvature="0" />
      <path
         class="fil0 str0"
         d="m 623.94822,384.261 38.54496,0"
         id="path13-8"
         style="fill:none;stroke:#000000;stroke-width:1.60954762;stroke-miterlimit:4;stroke-opacity:1;stroke-dasharray:none"
         inkscape:connector-curvature="0" />
      <path
         class="fil0 str0"
         d="m 636.1145,370.24456 26.50724,0"
         id="path15-9"
         style="fill:none;stroke:#000000;stroke-width:1.60954762;stroke-miterlimit:4;stroke-opacity:1;stroke-dasharray:none"
         inkscape:connector-curvature="0" />
      <path
         class="fil0 str0"
         d="m 643.58576,363.24228 19.11908,0"
         id="path17"
         style="fill:none;stroke:#000000;stroke-width:1.60954762;stroke-miterlimit:4;stroke-opacity:1;stroke-dasharray:none"
         inkscape:connector-curvature="0" />
      <path
         class="fil1 str1"
         d="m 642.25684,385.40033 c 1.8807,-1.2699 3.28527,-2.23123 4.18991,-2.89583 0.90464,-0.65276 1.85689,-1.47167 2.83295,-2.44489 0.97606,-0.97319 1.79737,-2.07695 2.46395,-3.29937 0.52374,-0.90199 0.97606,-1.94641 1.34505,-3.13323 0.369,-1.17496 0.55946,-2.31431 0.59516,-3.39433 0,-1.00879 -0.13093,-1.97013 -0.4047,-2.87212 -0.26187,-0.91385 -0.71419,-1.66156 -1.35697,-2.26683 -0.64276,-0.59343 -1.47598,-0.89011 -2.51156,-0.89011 -0.99986,0 -1.94021,0.20174 -2.82104,0.59339 -0.86893,0.40354 -1.4879,1.04442 -1.83309,1.94641 0,0.0831 -0.0476,0.18989 -0.11903,0.34417 0.0238,0.18989 0.11903,0.33232 0.29758,0.43914 0.17855,0.1068 0.33329,0.15428 0.47613,0.15428 0.0714,0 0.27377,-0.0356 0.58325,-0.10682 0.32139,-0.0712 0.58326,-0.11869 0.79751,-0.11869 0.63087,0 1.19031,0.22551 1.70215,0.66463 0.49993,0.43913 0.7499,0.97321 0.7499,1.60223 0,0.45098 -0.13093,0.87825 -0.3809,1.2699 -0.24997,0.39166 -0.59516,0.71209 -1.03557,0.9376 -0.44042,0.23737 -0.92845,0.34417 -1.45219,0.34417 -0.95225,0 -1.76167,-0.28483 -2.42824,-0.86639 -0.65467,-0.5934 -0.98796,-1.34111 -0.98796,-2.2787 0,-1.1987 0.36899,-2.23123 1.09509,-3.10948 0.73799,-0.87825 1.66644,-1.53101 2.80914,-1.97015 1.1308,-0.451 2.2735,-0.66462 3.44001,-0.66462 1.27364,0 2.48776,0.32045 3.61856,0.97321 1.1427,0.64088 2.03544,1.53099 2.70201,2.63475 0.66658,1.11562 1.01177,2.30244 1.01177,3.58422 0,2.2787 -0.7618,4.39125 -2.2854,6.34952 -1.52361,1.95826 -3.40431,3.65545 -5.654,5.10337 -1.49979,0.98505 -3.92804,2.3143 -7.27282,3.98774 l -0.16665,-0.61717 z m 16.53348,-18.3602 c 0,-0.42727 0.15473,-0.78331 0.46422,-1.06816 0.29758,-0.29671 0.66658,-0.43911 1.10699,-0.43911 0.38091,0 0.738,0.16614 1.05938,0.4866 0.32139,0.30857 0.47612,0.67648 0.47612,1.08002 0,0.42725 -0.16664,0.79516 -0.47612,1.09187 -0.33329,0.28483 -0.70229,0.42726 -1.1189,0.42726 -0.44041,0 -0.7975,-0.14243 -1.08318,-0.46286 -0.28568,-0.30859 -0.42851,-0.6765 -0.42851,-1.11562 z m 0,6.21897 c 0,-0.42725 0.15473,-0.79518 0.44041,-1.08001 0.29758,-0.29671 0.66658,-0.43914 1.1308,-0.43914 0.38091,0 0.72609,0.1543 1.05938,0.47474 0.30948,0.32045 0.47612,0.66462 0.47612,1.04441 0,0.46286 -0.15473,0.83077 -0.45232,1.12748 -0.30948,0.29671 -0.66656,0.451 -1.08318,0.451 -0.46422,0 -0.83322,-0.15429 -1.1308,-0.43912 -0.28568,-0.28485 -0.44041,-0.66462 -0.44041,-1.13936 z"
         id="path19"
         style="fill:#000000;fill-opacity:1;fill-rule:evenodd;stroke:none"
         inkscape:connector-curvature="0" />
    </g>
    <text
       xml:space="preserve"
       style="font-size:14px;font-style:normal;font-variant:normal;font-weight:normal;font-stretch:normal;text-align:center;line-height:100%;letter-spacing:0px;word-spacing:0px;writing-mode:lr-tb;text-anchor:middle;fill:#000000;fill-opacity:1;stroke:none;display:inline;font-family:TeX Gyre Heros;-inkscape-font-specification:TeX Gyre Heros"
       x="551.64044"
       y="424.26788"
       id="text4075-1-7-6"
       sodipodi:linespacing="100%"><tspan
         sodipodi:role="line"
         id="tspan5937"
         x="551.64044"
         y="424.26788">Cycling</tspan></text>
    <text
       xml:space="preserve"
       style="font-size:14px;font-style:normal;font-variant:normal;font-weight:normal;font-stretch:normal;text-align:center;line-height:100%;letter-spacing:0px;word-spacing:0px;writing-mode:lr-tb;text-anchor:middle;fill:#000000;fill-opacity:1;stroke:none;display:inline;font-family:TeX Gyre Heros;-inkscape-font-specification:TeX Gyre Heros"
       x="698.78699"
       y="425.13135"
       id="text4075-1-7-6-3"
       sodipodi:linespacing="100%"><tspan
         sodipodi:role="line"
         id="tspan10174"
         x="698.78699"
         y="425.13135">Musician</tspan></text>
    <path
       inkscape:connector-curvature="0"
       class="st18"
       d="m 725.16884,494.63988 -9.9778,-3.93065 v -7.8613 l 9.9778,-3.93065 c 1.20943,0 2.11651,0.90707 2.11651,2.1165 v 11.79196 c 0,0.90707 -0.90708,1.81414 -2.11651,1.81414 z m -18.74617,-13.90846 c -4.83772,0 -8.76838,-3.93064 -8.76838,-8.76837 0,-4.83772 3.93066,-8.76837 8.76838,-8.76837 4.83772,0 8.76837,3.93065 8.76837,8.76837 0,4.83773 -3.93065,8.76837 -8.76837,8.76837 z m -17.83911,0 c -4.83772,0 -8.76837,-3.93064 -8.76837,-8.76837 0,-4.83772 3.93065,-8.76837 8.76837,-8.76837 4.83773,0 8.76837,3.93065 8.76837,8.76837 0.30236,4.83773 -3.62829,8.76837 -8.76837,8.76837 z m 24.79334,0 v 17.83911 h -10.88488 c 0,1.51179 -0.90707,3.02358 -1.81416,3.93065 h 1.20944 l 7.86131,17.83911 h -2.41887 l -2.72122,-6.04716 h -5.14008 v 9.97781 h -2.11651 v -9.97781 h -5.14008 l -2.72122,6.04716 h -2.1165 l 7.8613,-17.83911 h 0.60472 c -1.20943,-0.90707 -1.81415,-2.1165 -1.81415,-3.93065 h -12.69903 v -17.83911 h 6.95423 17.83911 7.25659 z m -15.72261,22.37448 c 0,0 -0.30236,0 0,0 l -4.53537,9.37309 h 4.53537 v -9.37309 z m 1.81415,-0.30236 v 9.37309 h 4.23301 l -4.23301,-9.37309 c 0.30236,0 0.30236,0 0,0 z"
       id="path717"
       style="fill:none;stroke:#000000;stroke-width:1.38665152;stroke-miterlimit:4;stroke-opacity:1;stroke-dasharray:none;display:inline" />
    <path
       inkscape:connector-curvature="0"
       class="st18"
       d="m 579.61916,480.95898 -28.18953,-19.4642 -28.18953,19.4642 28.18953,19.46419 28.18953,-19.46419 z m -28.52512,23.49126 -25.16922,-16.44389 -3.35589,3.3559 28.18952,19.4642 28.18953,-19.4642 -3.3559,-3.3559 -24.49804,16.44389 z m 0,10.73888 -25.16922,-16.44389 -3.35589,3.35589 28.18952,19.4642 28.18953,-19.4642 -3.3559,-3.35589 -24.49804,16.44389 z"
       id="path897"
       style="fill:none;stroke:#000000;stroke-width:1.40953445;stroke-miterlimit:4;stroke-opacity:1;stroke-dasharray:none;display:inline" />
    <text
       xml:space="preserve"
       style="font-size:14px;font-style:normal;font-variant:normal;font-weight:normal;font-stretch:normal;text-align:center;line-height:100%;letter-spacing:0px;word-spacing:0px;writing-mode:lr-tb;text-anchor:middle;fill:#000000;fill-opacity:1;stroke:none;display:inline;font-family:TeX Gyre Heros;-inkscape-font-specification:TeX Gyre Heros"
       x="551.38892"
       y="545.92816"
       id="text4075-1-7-6-1"
       sodipodi:linespacing="100%"><tspan
         y="545.92816"
         x="551.38892"
         sodipodi:role="line"
         id="tspan7602">Literature</tspan></text>
    <text
       xml:space="preserve"
       style="font-size:14px;font-style:normal;font-variant:normal;font-weight:normal;font-stretch:normal;text-align:center;line-height:100%;letter-spacing:0px;word-spacing:0px;writing-mode:lr-tb;text-anchor:middle;fill:#000000;fill-opacity:1;stroke:none;display:inline;font-family:TeX Gyre Heros;-inkscape-font-specification:TeX Gyre Heros"
       x="700.03296"
       y="545.92816"
       id="text4075-1-7-6-4"
       sodipodi:linespacing="100%"><tspan
         sodipodi:role="line"
         id="tspan10172"
         x="700.03296"
         y="545.92816">Cinematography</tspan></text>
  </g>
</svg>
