<?xml version="1.0" encoding="UTF-8" standalone="no"?>
<!-- Created with Inkscape (http://www.inkscape.org/) -->

<svg
   xmlns:dc="http://purl.org/dc/elements/1.1/"
   xmlns:cc="http://creativecommons.org/ns#"
   xmlns:rdf="http://www.w3.org/1999/02/22-rdf-syntax-ns#"
   xmlns:svg="http://www.w3.org/2000/svg"
   xmlns="http://www.w3.org/2000/svg"
   xmlns:sodipodi="http://sodipodi.sourceforge.net/DTD/sodipodi-0.dtd"
   xmlns:inkscape="http://www.inkscape.org/namespaces/inkscape"
   width="64"
   height="61.996265"
   id="svg10048"
   version="1.1"
   inkscape:version="0.48.4 r9939"
   sodipodi:docname="ink.svg">
  <defs
     id="defs10050" />
  <sodipodi:namedview
     id="base"
     pagecolor="#ffffff"
     bordercolor="#666666"
     borderopacity="1.0"
     inkscape:pageopacity="0.0"
     inkscape:pageshadow="2"
     inkscape:zoom="2.8"
     inkscape:cx="18.67566"
     inkscape:cy="21.146991"
     inkscape:document-units="px"
     inkscape:current-layer="layer1"
     showgrid="false"
     fit-margin-top="0"
     fit-margin-left="0"
     fit-margin-right="0"
     fit-margin-bottom="0"
     inkscape:window-width="1276"
     inkscape:window-height="761"
     inkscape:window-x="0"
     inkscape:window-y="37"
     inkscape:window-maximized="0" />
  <metadata
     id="metadata10053">
    <rdf:RDF>
      <cc:Work
         rdf:about="">
        <dc:format>image/svg+xml</dc:format>
        <dc:type
           rdf:resource="http://purl.org/dc/dcmitype/StillImage" />
        <dc:title />
      </cc:Work>
    </rdf:RDF>
  </metadata>
  <g
     inkscape:label="Layer 1"
     inkscape:groupmode="layer"
     id="layer1"
     transform="translate(0.57142921,-335.64977)">
    <path
       inkscape:connector-curvature="0"
       d="m 26.366708,337.74688 c 0,0 -24.8525426,24.84782 -24.8525426,24.84782 -1.37041502,1.37039 -2.08252731,3.27777 -2.08559397,4.94031 -0.003306,1.80623 12.80752157,4.22197 14.16977257,5.59619 2.067992,2.08617 -7.931577,3.55572 -5.8698643,5.66225 2.0063309,2.04994 12.5140713,4.00671 14.5850033,6.07748 2.07074,2.07073 -4.231853,4.27569 -2.161091,6.34643 2.070738,2.07076 9.026538,-0.51762 7.766714,4.88369 2.796391,2.79639 8.630672,1.46104 12.537158,-1.33535 2.070737,-2.07073 -3.972326,-1.88811 -1.901572,-3.95885 2.070738,-2.07076 7.297673,-2.08194 11.701978,-7.03535 -1.959447,-3.07712 -9.6102,-4.36168 -3.826492,-7.042 0.326859,-0.15148 15.950135,-3.03751 16.817055,-7.00591 0.537805,-2.46184 -0.124076,-5.42778 -1.939745,-7.12889 0,0 -24.847826,-24.84782 -24.847826,-24.84782 -2.882952,-2.85872 -7.363524,-2.73287 -10.092954,0 z"
       style="fill:#18263a;fill-opacity:1;fill-rule:evenodd"
       id="path2312" />
    <path
       inkscape:connector-curvature="0"
       d="m 33.9494,340.35623 c 0,0 11.739724,8.7057 11.739724,8.7057 0.885134,0.56268 1.530553,1.39879 1.544314,2.40646 l -6.956476,-3.3596 -0.693627,5.25173 -3.826737,-1.79304 -5.907608,3.9447 -2.260181,-7.79503 -2.911336,6.81829 -8.130044,0.81159 0.08965,-3.61912 c 0,-0.86928 4.68648,-6.9549 7.540225,-8.40372 l 5.223421,-3.75124 c 2.025222,-1.32638 2.495898,-0.56721 4.548672,0.78328 z m -13.556362,34.04425 c 3.70052,0.9597 7.818346,2.2188 11.121596,2.24132 l 0.141556,1.48633 c -2.828619,-0.29156 -8.813879,-1.65728 -10.225073,-2.37814 l -1.038079,-1.34951 z"
       style="fill:#ffffff;fill-opacity:1;fill-rule:evenodd"
       id="path8132" />
    <path
       inkscape:connector-curvature="0"
       d="m 50.39681,386.90942 c 3.03602,0.60713 3.643488,2.73246 3.03602,3.33959 -0.606978,0.6073 -2.124994,1.21444 -3.339443,0.30357 -1.214767,-0.9107 -1.214767,-3.03603 0.303423,-3.64316 z"
       style="fill:#18263a;fill-opacity:1;fill-rule:evenodd"
       id="droplet01" />
    <path
       inkscape:connector-curvature="0"
       d="m 19.672833,387.11223 c -0.295834,0.0789 -2.767295,-2.05086 -4.724471,-1.06373 -1.956678,0.98699 -3.27025,3.19712 -1.442256,4.10403 1.828168,0.90694 3.134971,-0.13888 4.737619,-1.26424 1.602826,-1.12518 1.544994,-1.34198 1.429108,-1.77606 z"
       style="fill:#18263a;fill-opacity:1;fill-rule:evenodd"
       id="droplet02" />
    <path
       inkscape:connector-curvature="0"
       d="m 55.783641,381.70912 c 1.651127,-0.41286 5.465237,0 4.857768,2.42858 -0.606967,2.42921 -5.768151,1.51799 -9.108225,0.30405 -0.303586,-2.42906 3.472231,-2.53819 4.250457,-2.73263 z"
       style="fill:#18263a;fill-opacity:1;fill-rule:evenodd"
       id="droplet03" />
    <path
       inkscape:connector-curvature="0"
       d="m 62.558808,354.46989 c 0,0 -0.01531,-14.42893 -0.01531,-14.42893 -8.48952,6.13332 -15.64219,11.68121 -23.969423,23.06264 1.90163,1.01736 2.9833,2.46259 3.42586,4.43416 1.36977,-0.85022 1.019298,-0.73332 2.419986,-1.5783 6.476928,-3.72956 10.53198,-5.99755 18.138875,-11.48957 z"
       style="fill:#ffffff;fill-opacity:1;stroke:#18263a;stroke-width:1.56815159000000004;stroke-miterlimit:4;stroke-opacity:1;stroke-dasharray:none"
       id="path2176" />
    <path
       inkscape:connector-curvature="0"
       d="m 37.207376,363.96219 c 1.900645,0.13667 3.104217,1.47732 3.314036,3.10723 0.209819,1.62991 -0.577154,3.55093 -3.171141,4.80649 -2.372054,1.14817 -6.335306,1.65573 -12.261378,0.52868 2.396375,-1.75729 3.767514,-2.84308 4.325282,-3.54419 3.107101,-3.90563 5.892557,-5.03488 7.793201,-4.89821 z"
       style="fill:#ffffff;fill-opacity:1;stroke:none"
       id="path8028" />
    <path
       inkscape:connector-curvature="0"
       d="m 29.759282,372.27224 c 1.767508,-1.11923 3.470936,-1.26015 4.671256,-1.62809 1.678889,-0.51463 0.459299,-0.59942 5.32181,-2.70126 -2.216924,3.39003 -5.219625,4.97794 -9.993066,4.32935 z"
       style="fill:#18263a;fill-opacity:1;stroke:none"
       id="path8026" />
  </g>
</svg>
