<?xml version="1.0" encoding="UTF-8" standalone="no"?>
<!-- Created with Inkscape (http://www.inkscape.org/) -->

<svg
   xmlns:dc="http://purl.org/dc/elements/1.1/"
   xmlns:cc="http://creativecommons.org/ns#"
   xmlns:rdf="http://www.w3.org/1999/02/22-rdf-syntax-ns#"
   xmlns:svg="http://www.w3.org/2000/svg"
   xmlns="http://www.w3.org/2000/svg"
   xmlns:sodipodi="http://sodipodi.sourceforge.net/DTD/sodipodi-0.dtd"
   xmlns:inkscape="http://www.inkscape.org/namespaces/inkscape"
   width="64"
   height="61.996265"
   id="svg10048"
   version="1.1"
   inkscape:version="0.48.4 r9939"
   sodipodi:docname="New document 75">
  <defs
     id="defs10050" />
  <sodipodi:namedview
     id="base"
     pagecolor="#ffffff"
     bordercolor="#666666"
     borderopacity="1.0"
     inkscape:pageopacity="0.0"
     inkscape:pageshadow="2"
     inkscape:zoom="1.979899"
     inkscape:cx="89.823734"
     inkscape:cy="9.4496255"
     inkscape:document-units="px"
     inkscape:current-layer="layer1"
     showgrid="false"
     fit-margin-top="0"
     fit-margin-left="0"
     fit-margin-right="0"
     fit-margin-bottom="0"
     inkscape:window-width="1276"
     inkscape:window-height="761"
     inkscape:window-x="0"
     inkscape:window-y="37"
     inkscape:window-maximized="0" />
  <metadata
     id="metadata10053">
    <rdf:RDF>
      <cc:Work
         rdf:about="">
        <dc:format>image/svg+xml</dc:format>
        <dc:type
           rdf:resource="http://purl.org/dc/dcmitype/StillImage" />
        <dc:title></dc:title>
      </cc:Work>
    </rdf:RDF>
  </metadata>
  <g
     inkscape:label="Layer 1"
     inkscape:groupmode="layer"
     id="layer1"
     transform="translate(0.57142921,-335.64977)">
    <g
       style="display:inline"
       id="g7074"
       transform="matrix(0.16128412,0,0,0.16128412,-3.8942832,208.89244)">
      <path
         id="path2312"
         style="fill:#000000;fill-opacity:1;fill-rule:evenodd"
         d="m 187.62536,798.92825 c 0,0 -154.091689,154.06243 -154.091689,154.06243 -8.4969,8.49674 -12.912166,20.32295 -12.93118,30.63111 -0.0205,11.19903 79.409689,26.17721 87.855969,34.69771 12.82204,12.9347 -49.177669,22.0463 -36.394559,35.1073 12.43973,12.7101 77.590229,24.8425 90.430499,37.6818 12.83908,12.839 -26.2385,26.5103 -13.39928,39.3494 12.83907,12.8392 55.96669,-3.2094 48.15548,30.28 17.33829,17.3383 53.51222,9.0588 77.73337,-8.2795 12.83906,-12.839 -24.62937,-11.7067 -11.7902,-24.5458 12.83907,-12.8392 45.24731,-12.9085 72.55505,-43.6208 -12.14904,-19.0789 -59.58553,-27.0435 -23.72516,-43.6621 2.0266,-0.9392 98.89464,-18.8333 104.26975,-43.4383 3.33452,-15.26404 -0.7693,-33.65358 -12.02688,-44.20082 0,0 -154.06245,-154.06243 -154.06245,-154.06243 -17.87499,-17.72474 -45.6556,-16.94447 -62.57872,0 z"
         inkscape:connector-curvature="0" />
      <path
         id="path8132"
         style="fill:#ffffff;fill-opacity:1;fill-rule:evenodd"
         d="m 234.63986,815.10685 c 0,0 72.78909,53.97744 72.78909,53.97744 5.48804,3.48874 9.48979,8.67278 9.57511,14.92059 l -43.13181,-20.83031 -4.30065,32.562 -23.72668,-11.11731 -36.62858,24.45807 -14.01366,-48.33101 -18.05098,42.275 -50.40821,5.03205 0.55587,-22.4394 c 0,-5.38972 29.05729,-43.12205 46.75119,-52.10505 l 32.38646,-23.25857 c 12.55686,-8.22393 15.47516,-3.51685 28.20285,4.8565 z m -84.05268,211.08245 c 22.94411,5.9504 48.47561,13.7571 68.95655,13.8967 l 0.87768,9.2156 c -17.53811,-1.8077 -54.64815,-10.2755 -63.39789,-14.745 l -6.43634,-8.3673 z"
         inkscape:connector-curvature="0" />
      <path
         id="droplet01"
         style="fill:#000000;fill-opacity:1;fill-rule:evenodd"
         d="m 336.61772,1103.7477 c 18.82405,3.7644 22.5905,16.9419 18.82405,20.7063 -3.76341,3.7654 -13.17547,7.5298 -20.70534,1.8822 -7.53185,-5.6466 -7.53185,-18.8241 1.88129,-22.5885 z"
         inkscape:connector-curvature="0" />
      <path
         id="droplet02"
         style="fill:#000000;fill-opacity:1;fill-rule:evenodd"
         d="m 146.12174,1105.0052 c -1.83424,0.4892 -17.15789,-12.7158 -29.29285,-6.5954 -12.13187,6.1196 -20.276329,19.8229 -8.94233,25.446 11.33508,5.6232 19.43757,-0.8611 29.37437,-7.8386 9.9379,-6.9764 9.57933,-8.3206 8.86081,-11.012 z"
         inkscape:connector-curvature="0" />
      <path
         id="droplet03"
         style="fill:#000000;fill-opacity:1;fill-rule:evenodd"
         d="m 370.01736,1071.5046 c 10.23738,-2.5598 33.88577,0 30.11932,15.0578 -3.76334,15.0617 -35.76391,9.4119 -56.47317,1.8852 -1.8823,-15.0608 21.52866,-15.7374 26.35385,-16.943 z"
         inkscape:connector-curvature="0" />
      <path
         id="path2176"
         style="fill:#ffffff;fill-opacity:1;stroke:#000000;stroke-width:9.72291374;stroke-miterlimit:4;stroke-opacity:1;stroke-dasharray:none"
         d="m 412.02501,902.6149 c 0,0 -0.0949,-89.46278 -0.0949,-89.46278 -52.63705,38.02802 -96.98531,72.42625 -148.61614,142.99385 11.79056,6.30787 18.49717,15.26862 21.24115,27.49282 8.4929,-5.27157 6.31989,-4.54673 15.00449,-9.78583 40.1585,-23.12417 65.30079,-37.18624 112.46535,-71.23806 z"
         inkscape:connector-curvature="0" />
      <path
         id="path8028"
         style="fill:#ffffff;fill-opacity:1;stroke:none"
         d="m 254.84009,961.46942 c 11.78445,0.84739 19.24688,9.15973 20.54781,19.26558 1.30093,10.10585 -3.57849,22.0166 -19.66183,29.8014 -14.7073,7.1189 -39.28041,10.2659 -76.02347,3.2779 14.8581,-10.8956 23.35949,-17.62775 26.81778,-21.97483 19.26477,-24.21582 36.53526,-31.21745 48.31971,-30.37005 z"
         inkscape:connector-curvature="0" />
      <path
         id="path8026"
         style="fill:#000000;fill-opacity:1;stroke:none"
         d="m 208.66013,1012.9937 c 10.95897,-6.9395 21.52063,-7.8132 28.9629,-10.0945 10.40951,-3.19089 2.84776,-3.71656 32.99649,-16.74849 -13.74546,21.01899 -32.36292,30.86439 -61.95939,26.84299 z"
         inkscape:connector-curvature="0" />
    </g>
  </g>
</svg>
